<mxfile host="app.diagrams.net" agent="Mozilla/5.0 (Windows NT 10.0; Win64; x64) AppleWebKit/537.36 (KHTML, like Gecko) Chrome/129.0.0.0 Safari/537.36" version="24.7.17">
  <diagram name="Página-1" id="dNnN6mv_j6JxDsNxnSgW">
    <mxGraphModel dx="891" dy="566" grid="0" gridSize="10" guides="1" tooltips="1" connect="1" arrows="1" fold="1" page="0" pageScale="1" pageWidth="827" pageHeight="1169" math="0" shadow="0">
      <root>
        <mxCell id="0" />
        <mxCell id="1" parent="0" />
        <mxCell id="FbNIvotwwf1VAXhXcKhQ-4" value="" style="rounded=0;whiteSpace=wrap;html=1;fillColor=none;" vertex="1" parent="1">
          <mxGeometry x="-31" y="231" width="347" height="82" as="geometry" />
        </mxCell>
        <mxCell id="FbNIvotwwf1VAXhXcKhQ-17" value="[o usuário deve estar logado]" style="edgeLabel;html=1;align=center;verticalAlign=middle;resizable=0;points=[];fontSize=9;" vertex="1" connectable="0" parent="1">
          <mxGeometry x="50.000689655172444" y="139.0000000000001" as="geometry">
            <mxPoint x="6" y="-34" as="offset" />
          </mxGeometry>
        </mxCell>
        <mxCell id="3bs9gXROCjIQecpAhkJo-8" value=":Tutorial" style="shape=umlLifeline;perimeter=lifelinePerimeter;whiteSpace=wrap;html=1;container=1;dropTarget=0;collapsible=0;recursiveResize=0;outlineConnect=0;portConstraint=eastwest;newEdgeStyle={&quot;curved&quot;:0,&quot;rounded&quot;:0};" parent="1" vertex="1">
          <mxGeometry x="134" y="70" width="130" height="340" as="geometry" />
        </mxCell>
        <mxCell id="3bs9gXROCjIQecpAhkJo-9" value="" style="html=1;points=[[0,0,0,0,5],[0,1,0,0,-5],[1,0,0,0,5],[1,1,0,0,-5]];perimeter=orthogonalPerimeter;outlineConnect=0;targetShapes=umlLifeline;portConstraint=eastwest;newEdgeStyle={&quot;curved&quot;:0,&quot;rounded&quot;:0};" parent="3bs9gXROCjIQecpAhkJo-8" vertex="1">
          <mxGeometry x="60" y="99" width="10" height="158" as="geometry" />
        </mxCell>
        <mxCell id="FbNIvotwwf1VAXhXcKhQ-11" value="" style="endArrow=classic;html=1;rounded=0;entryX=0.9;entryY=0.829;entryDx=0;entryDy=0;entryPerimeter=0;" edge="1" parent="3bs9gXROCjIQecpAhkJo-8" source="3bs9gXROCjIQecpAhkJo-9" target="3bs9gXROCjIQecpAhkJo-9">
          <mxGeometry width="50" height="50" relative="1" as="geometry">
            <mxPoint x="-64" y="109" as="sourcePoint" />
            <mxPoint x="72.5" y="109" as="targetPoint" />
          </mxGeometry>
        </mxCell>
        <mxCell id="FbNIvotwwf1VAXhXcKhQ-14" value="" style="endArrow=classic;html=1;rounded=0;" edge="1" parent="3bs9gXROCjIQecpAhkJo-8">
          <mxGeometry width="50" height="50" relative="1" as="geometry">
            <mxPoint x="70" y="113.99999999999989" as="sourcePoint" />
            <mxPoint x="70" y="143" as="targetPoint" />
            <Array as="points">
              <mxPoint x="98" y="114" />
              <mxPoint x="98" y="143" />
            </Array>
          </mxGeometry>
        </mxCell>
        <mxCell id="3bs9gXROCjIQecpAhkJo-1" value="Usuário" style="shape=umlActor;verticalLabelPosition=bottom;verticalAlign=top;html=1;" parent="1" vertex="1">
          <mxGeometry x="40" y="40" width="30" height="60" as="geometry" />
        </mxCell>
        <mxCell id="3bs9gXROCjIQecpAhkJo-2" value="" style="endArrow=none;dashed=1;html=1;rounded=0;" parent="1" edge="1">
          <mxGeometry width="50" height="50" relative="1" as="geometry">
            <mxPoint x="55" y="410" as="sourcePoint" />
            <mxPoint x="54.72000000000003" y="130" as="targetPoint" />
          </mxGeometry>
        </mxCell>
        <mxCell id="3bs9gXROCjIQecpAhkJo-3" value="" style="html=1;points=[[0,0,0,0,5],[0,1,0,0,-5],[1,0,0,0,5],[1,1,0,0,-5]];perimeter=orthogonalPerimeter;outlineConnect=0;targetShapes=umlLifeline;portConstraint=eastwest;newEdgeStyle={&quot;curved&quot;:0,&quot;rounded&quot;:0};" parent="1" vertex="1">
          <mxGeometry x="50" y="150" width="10" height="230" as="geometry" />
        </mxCell>
        <mxCell id="3bs9gXROCjIQecpAhkJo-14" value="" style="endArrow=classic;html=1;rounded=0;" parent="1" edge="1">
          <mxGeometry width="50" height="50" relative="1" as="geometry">
            <mxPoint x="60" y="169" as="sourcePoint" />
            <mxPoint x="196.5" y="169" as="targetPoint" />
          </mxGeometry>
        </mxCell>
        <mxCell id="3bs9gXROCjIQecpAhkJo-15" value="iniciarTutorial()" style="edgeLabel;html=1;align=center;verticalAlign=middle;resizable=0;points=[];" parent="3bs9gXROCjIQecpAhkJo-14" vertex="1" connectable="0">
          <mxGeometry x="0.1526" relative="1" as="geometry">
            <mxPoint x="-35" y="-8" as="offset" />
          </mxGeometry>
        </mxCell>
        <mxCell id="FbNIvotwwf1VAXhXcKhQ-1" value="loop" style="text;html=1;align=center;verticalAlign=middle;resizable=0;points=[];autosize=1;strokeColor=none;fillColor=none;fontSize=16;" vertex="1" parent="1">
          <mxGeometry x="54" y="178" width="48" height="31" as="geometry" />
        </mxCell>
        <mxCell id="FbNIvotwwf1VAXhXcKhQ-9" value="&lt;font style=&quot;font-size: 12px;&quot;&gt;carregarPasso()&lt;/font&gt;" style="text;html=1;align=center;verticalAlign=middle;resizable=0;points=[];autosize=1;strokeColor=none;fillColor=none;fontSize=16;" vertex="1" parent="1">
          <mxGeometry x="228" y="180" width="104" height="31" as="geometry" />
        </mxCell>
        <mxCell id="FbNIvotwwf1VAXhXcKhQ-16" value="&lt;font style=&quot;font-size: 12px;&quot;&gt;exibirPasso()&lt;/font&gt;" style="text;html=1;align=center;verticalAlign=middle;resizable=0;points=[];autosize=1;strokeColor=none;fillColor=none;fontSize=16;" vertex="1" parent="1">
          <mxGeometry x="218" y="228" width="88" height="31" as="geometry" />
        </mxCell>
      </root>
    </mxGraphModel>
  </diagram>
</mxfile>
